<?xml version="1.0" encoding="utf-8"?>
<!-- Generator: Adobe Illustrator 21.1.0, SVG Export Plug-In . SVG Version: 6.00 Build 0)  -->
<svg version="1.1" id="Layer_1" xmlns:sketch="http://www.bohemiancoding.com/sketch/ns"
	 xmlns="http://www.w3.org/2000/svg" xmlns:xlink="http://www.w3.org/1999/xlink" x="0px" y="0px" viewBox="0 0 465 203"
	 style="enable-background:new 0 0 465 203;" xml:space="preserve">
<style type="text/css">
	.st0{filter:url(#Adobe_OpacityMaskFilter);}
	.st1{fill:#FFFFFF;}
	.st2{mask:url(#mask-2);fill:#FF3366;}
</style>
<title>Page 1</title>
<desc>Created with Sketch.</desc>
<g id="Page-1" sketch:type="MSPage">
	<g sketch:type="MSLayerGroup">
		<g id="Group-3">
			<g id="Clip-2">
			</g>
			<defs>
				<filter id="Adobe_OpacityMaskFilter" filterUnits="userSpaceOnUse" x="317.4" y="0.1" width="147.6" height="202.9">
					<feColorMatrix  type="matrix" values="1 0 0 0 0  0 1 0 0 0  0 0 1 0 0  0 0 0 1 0"/>
				</filter>
			</defs>
			<mask maskUnits="userSpaceOnUse" x="317.4" y="0.1" width="147.6" height="202.9" id="mask-2">
				<g class="st0">
					<path id="path-1" class="st1" d="M0,0.1h465V203H0V0.1z"/>
				</g>
			</mask>
			<path id="Fill-1" sketch:type="MSShapeGroup" class="st2" d="M434.1,95.6c0,11.6-9.6,21.1-21.2,21.1h-45.6
				c-11.6,0-21.3-9.5-21.3-21.1V50c0-11.6,9.6-21.4,21.3-21.4h45.6c11.6,0,21.2,9.8,21.2,21.4V95.6z M413.6,0.1h-46.1
				c-27.7,0-50,23.9-50,51.6v46.1c0,27.7,22.4,49.9,50,49.9h10.7c-0.2,9.5-2.4,22.3-6.6,30.9c-4.6,9.8-12,17.9-21.7,24.5
				c8.1-3.2,15.4-6.3,21.7-9.5l7.6-4.4c9.5-6.3,16.6-13.8,21.2-21.8c3.4-5.6,5.6-12.5,6.6-19.6h6.7c27.7,0,51.4-22.2,51.4-49.9V51.7
				C465,24,441.3,0.1,413.6,0.1L413.6,0.1z"/>
		</g>
		<path id="Fill-4" sketch:type="MSShapeGroup" class="st1" d="M2.9,54.3c3.2-5.5,8.4-9.7,14.6-11.5c0,0,13-4.4,28.4,2.8
			c0,0,1,0.4,1.1,0.8l0,8.1c0,0.6-0.5,1.1-1.1,1.1c0,0-18.8-2.2-19.3-2.2c-0.5,0-10.4-1.7-13.2,10.6c-0.6,2.6-0.2,22.8-0.2,22.8
			s-0.3,11.9,13.6,12.9c0,0,6.9-0.1,17.4-2.2c0,0,2.9-0.9,2.9,1.9v5.9c0,0.1,0.1,1.8-0.9,2.1c0,0-12.3,4.2-20.1,3.8
			c-7.8-0.3-21.6-3.4-24.9-17.2c0,0-1.1-3.7-1.1-10.9c0-6.6,0-17.4,0-17.4S-0.1,59.5,2.9,54.3"/>
		<path id="Fill-6" sketch:type="MSShapeGroup" class="st1" d="M93.2,68.3H70.8c-3.8,0-2.1-4.6-2.1-4.6c1.9-6,7-10.4,13-10.4
			c6,0,11.6,4.5,13,10.6C94.7,63.9,96.5,68.3,93.2,68.3 M108.2,77.2v-5.4c0-30.8-26.2-30.3-26.2-30.3s-26.9,0-26.9,27v14.7
			c0,7.2,1.1,10.9,1.1,10.9c3.7,12.5,14.9,16.6,24.9,17.2c7.8,0.4,15.7-3.3,15.7-3.3c1-0.3,0.9-1.9,0.9-2.1v-5.9
			c0-2.8-2.9-1.9-2.9-1.9c-10.5,2.1-12.5,1.7-12.5,1.7c-13.9-1-13.6-12.9-13.6-12.9s0-2.6-0.1-6c0-2.4,1.4-2.2,1.4-2.2h37.1
			C108.4,78.5,108.2,77.2,108.2,77.2"/>
		<path id="Fill-8" sketch:type="MSShapeGroup" class="st1" d="M171.4,111.3c-9.2,0-19.7-4.7-23.3-17.2c0,0-1-3.7-1-10.9V30.8
			c0-0.6,0.4-1,1-1h11c0.6,0,1,0.4,1,1v9.7c0,0-0.2,2.6,2.7,2.6h9.8c0.5,0,0.9,0.4,0.9,0.9v9.9c0,0.5-0.4,0.9-0.9,0.9h-9.8
			c-2.9,0-2.7,2.8-2.7,2.8v26.8c0,0-0.8,12.8,11.5,14.7c0,0,2,0.2,2,1.9v7.8C173.5,108.7,173.6,111.3,171.4,111.3"/>
		<path id="Fill-10" sketch:type="MSShapeGroup" class="st1" d="M132.7,109c0,0.6-0.4,1-1,1h-11.5c-0.6,0-1-0.4-1-1V20.8
			c0-0.6,0.4-1,1-1h11.5c0.6,0,1,0.4,1,1V109z"/>
		<path id="Fill-12" sketch:type="MSShapeGroup" class="st1" d="M212.3,53.5h8.4c0.5,0,0.9-0.4,0.9-0.9v-9.9c0-0.5-0.4-0.9-0.9-0.9
			h-7.6c-25.7,0-24.2,22.8-24.2,22.8V109c0,0.6,0.4,1,1,1h11.5c0.6,0,1-0.4,1-1V66.5C202.4,66.5,201.6,53.5,212.3,53.5"/>
		<path id="Fill-14" sketch:type="MSShapeGroup" class="st1" d="M258.7,92c-1.3,2-4.4,5.1-9.9,5.8c-2.3,0.3-6.7,0-6.7,0
			c-2.9,0-5.1-2.1-5.5-4.8c0,0-0.4-4.1,0.1-6.5c0.5-2.3,3.1-4.1,5.6-4.1h18c0.5,0,0.9,0.4,0.9,0.9l0.1,4
			C261.1,87.3,260.2,89.6,258.7,92L258.7,92z M274.6,95l-0.4-25.4c0-7.2-1.2-10.9-1.2-10.9c-3.5-11.9-14-17-23.7-17.1
			c-7.5-0.1-15,3.3-15,3.3c-1,0.3-0.9,1.9-0.9,2.1v5.9c0,1.4,0.2,2,1.3,1.8c4.4-0.9,13.4-1.2,13.4-1.2c12.3,0.4,13.1,12.5,13.1,12.5
			c0,0,0,0.3,0.1,3.8c0,2.4-1.4,2.2-1.4,2.2s-4,0-16,0c-12.1,0-17.3,7.6-17.3,7.6c-2.2,3.3-3.4,7.2-3.4,11.3c0,3.6,1,7.1,2.7,10.1
			c0,0,5.7,8.8,15.5,8.8c9.8,0,13.2-0.3,16.6-2.9c3.3-2.6,4.9-3.6,4.9,0.6v1.3c0,0.6,0.4,1,1,1h9.9c0.6,0,1-0.4,1-1L274.6,95z"/>
	</g>
</g>
</svg>
